<mxfile host="app.diagrams.net" modified="2024-05-22T09:10:03.959Z" agent="Mozilla/5.0 (Windows NT 10.0; Win64; x64) AppleWebKit/537.36 (KHTML, like Gecko) Chrome/124.0.0.0 Safari/537.36" etag="xhtsR1AsCKmi9w6aCqDD" version="24.4.4" type="github">
  <diagram name="Page-1" id="H2NKDcwWlqCqL9h61qGk">
    <mxGraphModel dx="1032" dy="530" grid="1" gridSize="10" guides="1" tooltips="1" connect="1" arrows="1" fold="1" page="1" pageScale="1" pageWidth="2500" pageHeight="1100" math="0" shadow="0">
      <root>
        <mxCell id="0" />
        <mxCell id="1" parent="0" />
        <mxCell id="uETTeMXWZc_A1X-onE9V-1" value="" style="shape=image;verticalLabelPosition=bottom;labelBackgroundColor=default;verticalAlign=top;aspect=fixed;imageAspect=0;image=data:image/png,iVBORw0KGgoAAAANSUhEUgAAAWEAAADHCAYAAADIzeKQAAAAAXNSR0IArs4c6QAAAARnQU1BAACxjwv8YQUAAAAJcEhZcwAADsMAAA7DAcdvqGQAABY5SURBVHhe7d27bvJK24Dh5/sbTgQpQkg07nIESClIRxfJXTqaiDJFSvQ26dJZSkcHRSSOIB0NEkKROBGq9c/GBkPAeAdjk/uSvNYbwLux/XhmPJ7532az+U8AAE78X/h/AIADBGEAcIggDAAOEYQBwCGCMAA4RBAGAIcIwgDgEEEYABwiCN+MmTw37uV9Hf4J1J4+p5/Vf4vSy2lIQ033FbxASgjCa3m/1ztYRmLlN3t2vw37bLo8X2WD9Lp6shh9yqAZfrRVjeNzGtuXrOrpk9/6/V7tl963U/vXlZfRQnoF93323JPAn8pms5Hv3xeIc85zwuZA3L+rUw15rd+fZCgj+bzACcbxKcZ1+lX5+DUH3yYwbqZ++MlvzcGnjLxAerlzM2v5WYj4j93w7+opIQg3ZfCtEnLzoe5b7nQ/3G+DE+t3eRqKjD4H6kgcU43jcxrbl6zq6XNpav8/R+IFbzdb1VYoCCcXJ2wx6nm2q49pxOoso3nbw7nIfCjtI79JFhXT4tPxbTj9fVSNsZsOb7h73+/lKI7t37Hqh/g2xPctmj/8U5s9/8q1nNu+9ddY5l5fHo5EYLfHx0ra/uTt+z2vmZLSp+Qcn+v0u8b6k9LPLEMfMH1ehr+J6lTt8g+3yW5LvN51/xj+PsapNB+k781l/BXfuttRKAinKU4EvTdpLfWdfCNTfy7DJ3ugo3mXI0/EG8lSL8dM30fqNY+Jcgjh9Gsb9EnalmHH1gXZde3XL+kTqbeIr3sjH7Hshj6BerKbf9pRJ/PBiRr0eiLTaPme+nv/RAt6bVm9hvPH9j+Nc9unrVdz8foPKjV+c3t8zm//ue2zpZtomoov3l6OP83xKcJ1+l16/anSL+hJ461l51+ORK3ABPHm4FUdj0Am8ZN9NlGf+PIarkAf/8ljtF69fYH0ch2fpjz0PZmvss+ptkJWc09aKdPchYvXCfvT3UHvPp4+mUq3/pLx3Jdp7Ko/euLMx3L8BjuTSaAu+pfd/N0XVSw6+L2vAnC0Crv8hfyc+D7X/p/cPs3WdxVx8eOTuP1p6RuqvtnFA1i643Npzs7vUP71p00/dQ19hze+5p10ZC42FuqHZirTEbuYZpNA/fxxW22ibwTxm27h9Fn8ZAjgUQlhIo8ZbnwuOH8wdzHrlTpdDjWlpTIGEX2SmJt7Oywuxe/S6x8VTlXOIvpOT+3hkWUeik7S4hK3rwbK2n7z4FGVaOIXdP7jAyNt+sWCqg68HypHu810PPTFCyZhye93UFcHTu6jZeupp4L01dht3Sxb8paxCu3abjcIH6WLJuE/Q1GxbbNZykhUcWyv0lWdVGFRbzcl3FXNiV1u0Sd5+6qv8PbrB4/jviz3InAk4/HBgYLpZ+pqw5KlrorYezahcqIqqKsV7JadUK2SSufuaLVborA+uayM0SU4D8LNu05JRdYD3UdT9RBv2mLaC3ojid+sd5qiN2UrPHjDf+mDxuyfykn4r5mCwLY4p3MNiTmFg+0zwrqy8dfFcsjlHZ9j23+OvpDH0j/W8iP18YmKpTkfChV0sfM7pZPrz3F+/9aUwau6ytQ5rKsi/NdTLXQ0dRxy54TX8jWei1flit0CCgRh+3R2V8xQAc+c7Bmz/t0P+0BhWywqq+igiyNT8fWDBbPchn1IFNVvKftPbsPvtzku/eBP5d4Wu/nNdFCkDnqx+fVDjqM5tmOipjfh8tsreT3IKSRvn2WKhPOh/L6W3B+f5O0/v33mpnlYZN5+n+746N/ZKqiDZwFnuU6/S68/bfqdoTM76hzuBb7sN8W1dcbzYTtc9pu0RvHzO8P+mec7nvSPNQG6AbczxpxuRmMaKlyrPaU+iWzLh9Rx90LMU+6DGwx29FN6WzKmqqJ+7HU27i9zvu1Wnev0lBrXCc/kfXvLVAn9pu6mew8R/o7uRz3ri6/DFmXlRFtqVFvxt0FtNVi8FUfV1DgId+VBnsKiTtscqOMPb/4CXbTUVS+3+1ZRLuYlg7CtOKWEGprJv2Fn10Qup+7Hrlqyih34MOQ9ADj0x5qoAUC1EIQBwCGCMAA4RBAGAIduIAhHjb7dvBHF+v+2vRdSata3B6rhz+eEdUP+2l48pgnWk0i/4Dv5yGX7kozpG4G22sjnBoKwbiOrL4K/NvKBfhdfvyH4LYO78CNcUdhr2LZfC3UevKqbIW21kVGtg7DJxUZFwV/FcVtMdzfywaXpvjEuH/j3+3+I72Ny+kYO+4+wGUU777GG84clk6TivvmtXuCRkR8uznRg3pG77VsEap/0W5ty2GNXmD5UVeCEWgfhbTeJFR754LR48NqfqlKi1UHu3MgIp9JX0/Pviut2si812ldJT46UEHZZaIr7OUd+OK+E9PdaNhds+s3V/RMsRZ9OQBY3XyfseuSD08JOp49MVXn7Wt9k4ttyLP3Opu+Jbhybsd71TW43jHxmuCbTZWHRkR/OKSf9TW5cd7epbkTH5wvXw2vTOOHPP5hzp/o5YZvDi22b6XIwPR3ET42sYfq5NcPVqGC78MVf6BEa7HBNHV3GL2Hkh2QlpP98KD3d4fy29PR70ADgHIKwM1XPCasgVcLICNsqm8PWA82WytWuZK2CrfRf5LET9fcbH5nkkiNnFEx/vf3qf3sdmZsbx2G/ukCyPx+EXY98cHlRjq/og0O1nIw54X2HI5foqgORn6+VtB6apiojmPxTOcnwYVcpIz9cUHMgtjFElLtfy/uTHlnlsDvVstIft6rGQdg+YTdFyDqPfJBb2vXnHVni3MgI5x22jNgfWUNvVyDDccv282tGaAgkiB52qf+WMvLDBW37cTbbFnaZ+SsbnTf98VfQleUfoB8eMbKEQ2bUl0D8aVWqmlAl1AnfPEaWcCtsP3xygFn8dQThW8bIEm5F6a9HfSH9cQLVEQDgEDlhAHCIIAwADhGEAcAhgjAAOEQQBgCHCMIA4BBBGAAcIggDgEMEYQBwiCAMAA4RhAHAIYIwADhEEAYAhwjCAOAQQRgAHCIIA4BDBGEAcIggDAAOEYQBwCGCMAA4RBAGAIcIwpUxk+fGvbyvwz+Rgk6zZ/XfovRyGtJQ0z0HAFd2w0F4Le/3DXk+e4Xa3zWOXMzr93tzYdqpjIv9FL0NPVmMPmXQDD/aOr199XDJ7e/Ky2ghvYLLnj33JPCnstls5Pv3AQAuipxwgubg21yYm6kffnIZ6/cnGcpIPgkAmTUHnzLyAumdv9uesJafhYj/2A3/Bq6LICxNGXyrQLv5UPkqB9bv8jQUGX0O1JYcU972zZ5dFLcvnb5q+Z8j8YI3qnJQSzUNwraIeyygmCqE+3f1i0hUHNbTfp1rGdUNOrBtl7G33nTWX2OZe315OBKBy6sOsXWevUX5ue29/VdTPEN6bvsP5zXTQRqmSt/mg/S9uYy/sqY+4F5Ng3BT7joi89WJi65zt81VBr22rF51TmwjU38uw6fdhVy0ukEHiJ7YukSz/M5Q2hkD8Xo1F6//sN3euFKqQ1RO+76h65uXsvmO57Z3D6MOp7Qlex1kdWBfhvuvp49Ydvfc9nc/dvNtNlPxxdsrEaRP36Y89L3T50OitazmnrTKvTcBqdW2OqLZ8sJ/hbmlMHKYoBa7ovzpLjB0H8us253JJFBB42UXdbovqlg8H0v6DJmtj7wUkxNtD6Wj0uD3A6eufGwD4P4UD6RnZdrfU+yDSZl+xx5M5kjfxU+GG2B0E5rI4ya+XuC66huEdVbYXHTqYl344i8m6l82qHXurnBFrX9kISpn3Y7lIlXAm4dfu7eWr3HS1hTPCeuc7nIkuzTIUR2jmQeTnel+8L94+oY3oWVL3mgaCIfq+2Cu2VK5opWs1cUq/Rd57AQyMcHjmkVLlVNbHuYkq5KrCh+IqSi56B2rPy8nJ7ytctgsZSRDaWdtpaAfTI77sjy60ozpG6uGSi2sT85VkwGUoMZB+E5UXlh+vlbSemiaqoZg8k9W845cIyMcXbzDfxmDzp6wLnP8lSsHmUpzIN+bqXSG7dw51XRsPX02KjfeHkv/WMuQTOlrc/3xaiigLuobhNVl2/ICGY5btmVB91H8IJDAa6XMDcVaTfQC9XcgPVPsjYqm577XOU2V+1v07G+iKWOgaz70VY5+KL9jzbn1Z2FzvfrB1lOJ5e7D1g3mId02R3t++81LEodVDnnSd/0l47kn/WNNTICK+58q4v0X/huOmFYAOoDttV5AOjrYt2XcX+Z8283Or1vQZHogCZSkxjnh29H9yFmfCvtQr9DbhrYaJbAPFICrIydcGbq1wpu0ljSXSk+nmW5iVvRtPL0cXTUi4o3y5qiBfAjCAOAQ1REA4BBBGAAcIggDgEMEYVyJfviVp40z/i59zlxiMIBqIQjjCnRb3FMjhyBZ9NLL7QWj8121Fhg5xfQeGC471vTTrDPTC1WXT3+CMC6OkUPcyR50ridNV615R06Z/dMjJSzV8qfiRx3+mwEUOjKt2EtRBGFc1tmRQ5Ds0iOTVF1ZI6eoHK06ETvTrOl4+fQnCBe0339CvMhiizHPM12vFX3/u070sP8Fe8O386YZOWRv/oMcj/mtXuDsefubaw9vlDRyiPYX0m+7nIzMfNG2/SoOJ6dPNG97OBeZD6V95Dda3v23yz/cJrst8TQ6fXwzyDFyiu7Qa647rTIDGnzKw9eR7lLPSE7/SJj+B2mXBUG4AH2QJo9RF4t65A5VbDo4GEFPvwUXfT/fG9lDz398ZIp0I4foE/zsyBNBTxpvLbsO0/nvU8ocRfzi3p+yxJOkkUNuO/2KS1NcP5U+0bzLkadfA4yl0e6NzCL73xy8ii9R97Gh2UR94struII0xzedHCOndD+26/1++LLVEBk7B0mT/mUgCBegD1L8uB4bucOPjRZxdGSPEyNFnB85JO3IE/6uDsx0/5m279wy+htOHjnkttPvOs6mz0lF918/NPP2+tyYTQL188dtsT3N8c0k08gpEVViyFUNkVZ4nRSoZyYIFxF/Aqsn02VjevokPTUyxdmRQ9KOPBG7KKITJl0QLScnnOiG00/nAqPlmioBnaMM/752ldBRJey/6YY10Omq/Q7qRY9vGaJRW15+dsejtPO3JATh3FSQUietfQIb5hJzFFt0ILHzH/SklmrkkIwjT2RSRk44yW2n3267dDFcfeDviv3V6SCo4P6butowXXVVxF7dfznHd0/WkVOi1hAfIraxhN2G4C1PlcjlEIRLo066Qnf6g5EpTNEvYeSQUkb2uLQsI4eQfpdgSgTHqmxK2f+mDF51us5MVYT/mlQkL3J884ycculqiIjaL5PDzvnQUSEI52brxOwTWH0Q3qQ1ynanN3WVYRFJT/sjU5wbOSTDyBMOnR45hPRLZls/mG0ywev3yCSpdD/sA7tttUM0f0n7b9K1J73Al8e9aHfu+GbYvxwjp8ye27HWEHpbwmqr3iJlc8m026fPM/3/g4eUGdCVJS7OPIVn5BDkooNhkZFTrkA34VOB2p/mq6ojCOMK7IWkcyabciqU8UfoB5xtPRp3ZW/g4bkt+TMZBGFcia47021ay3pwiNunz5kyRk65kDAHbNphF7hJEIQBwCEezAGAQwRhAHCIIAwADhGEAcAhgnBhUaPu/G/MAPi7CMIA4BBN1ADAIXLCBcS7K0yqjjC/S+g/L/n7sIOQivUJAaAcBOECtt0VFu2iD8CfRRCuvOI99wOoLoLwhZwbWeHc9wD+Bh7MlcF05CEyPdHRiOnKUQ+oeKIHsXPfA7hd5IQrr3jP/QCqiyCcW9qe94sq3nM/gOqiOqIOCvbcD6C6yAlXnspxv9mOo+OjiQO4DQThKtM54EaxoVMAVBvVEQDgEDlhAHCIIAwADhGEAcChWgfh3au/vMgAoJ5u4sEcr/0CqKubqI7oPvoiix/62wVQO9QJA4BDBGEAcOg2gnCzJd58LF/URwComRsJwgP53nyKPNFSAkC93EYQXr/LfeNJ5HMjmxMdqwNAFd1IEF7J3OvLAz3cAKgZHswBgEMEYQBwiCAMAA7dRBCeTQKRzh2dngOonVoH4agDn17gy5R+IwDUECNrAIBD1AkDgEMEYQBwiCAMAA4RhAHAIYIwADhEEAYAhwjCAOAQQRgAHCIIA4BDBGEAcIggDAAOEYQBwCGCMAA4RBAGAIcIwgDgEEEYABwiCAOAQwRhAHCIIAwADhGEAcAhgjAAOEQQBgCHCMKoubW83zek0XiWWfgJUCd/Pgiv3++lcf+uLmXUzuxZBd8nkb4ffgDUDzlh1NRMnnsi0823DO7Cj4AaqnUQNrnYZ1UINTkiXSRtyP37fp529mw/N1Msx2vmVZ+1h3OR+VDa0W8a92IXYYu5evFbej2Hyzi5/mh+FSx+LTu9ve3fK3KnW/7+/NH+2HkP00o7LBmcSj8tTfqnsV1OJl352Hyo/54Tpg+lHVRU/XPCQU8aby1ZbjayWY5Ehk/bQKQDSE+mstHfqWnaUcE2vBibg2/z2XLkiXgjO7+ZVM6qaedPJWH9WtB7k9YyXL8/V1+nDwY6OE0eo+3S8wfSOwgmScvX8/cW8X3byIeJWk2566h7z+rElnTu1C+S02/rzP4DSHYD1RG+TL8HJmhI8046MhcbW2YyCTwZvezySt2XkXjzsXyVGiROrd/yp7ug3n3MVnepbxQ2aFrH5j+7/BP722ypm0/I5HbDnOh6NRevZUJwyvRL3n/3dI5Z3SCibQQqpv5B2H+MFUntBWcC1/pHFiogDNthUVpP7aH6pGSn1l+G9bvcR9uup14QfpGODuImcxqlQSwX29RZ4cWP+lsF24Uv/mKi/rWWn4XOCKtwlTb9cu6/qYIIl2uqhHSOOvw7T5UGUFc3/mBO5eTCovpuyljd4MxMnlXQUzuw2/Zp9lYAUbXLZrOUkQylHdW9NlsqV7uStQq20n+Rx04gE/OVJyYjbFwu/XbbpatR1Af+rtrjux4HCCjF7Qbh5oP0PZWT+5f8wMfkCBOqKAIbmWyuNGNOtFy6NUCR9dt64C1TdSDy87WS1kPTVGUEk3+ymndEZ4TTpl/1RQ8uaUeMarrhnHBTBt8q97fYFXPNdPhgqfthH2hti91RCwM1/+dIvKiY3F7Ja46caH5deRl5Mh+2w+16k9Yo2/oPW0aYh3TbuoKmtLxAhuOWqBisVvcofhBI4LXCutOU6edM9JKGmszNKZCe2cbDFiJ6P/X/o5w+UC3/U8W//8J/A7dJN6FTgdqfllhfD5TkxuuEAZVjflM5ZW8ksYYeQGUQhHG7zEskbRnKSJY0UUNFUR0BAA6REwYAhwjCAOAQQRgAHCoUhHevntIQHgDyKOXB3La3LRphAkAmpVRHmN67TGcwAIAsqBMGAIcIwgDgUDlB2HSLWHZn6QBw+0oKwgP53nyKPNFSAgCyKCcImxEgnkQ+dafcaQZfBABoJQXhlcy9vu2XFgCQGg/mAMAhgjAAOEQQBgCHSgnCs0mgx0mn02wAyKhQEI468OkFvkzpNwIAMmNkDQBwiDphAHCIIAwADhGEAcAhgjAAOEQQBgCHCMIA4BBBGAAcIggDgEMEYQBwiCAMAA4RhAHAIYIwADhEEAYAZ0T+HzFt+pQjPOK1AAAAAElFTkSuQmCC;" vertex="1" parent="1">
          <mxGeometry x="40" y="480" width="353" height="199" as="geometry" />
        </mxCell>
        <mxCell id="uETTeMXWZc_A1X-onE9V-2" value="" style="endArrow=classic;html=1;rounded=0;strokeColor=#1d722e;" edge="1" parent="1">
          <mxGeometry width="50" height="50" relative="1" as="geometry">
            <mxPoint x="268" y="515" as="sourcePoint" />
            <mxPoint x="440" y="515" as="targetPoint" />
          </mxGeometry>
        </mxCell>
        <mxCell id="uETTeMXWZc_A1X-onE9V-3" value="" style="endArrow=classic;html=1;rounded=0;strokeColor=#1d722e;" edge="1" parent="1">
          <mxGeometry width="50" height="50" relative="1" as="geometry">
            <mxPoint x="242" y="549" as="sourcePoint" />
            <mxPoint x="440" y="549" as="targetPoint" />
          </mxGeometry>
        </mxCell>
        <mxCell id="uETTeMXWZc_A1X-onE9V-4" value="" style="endArrow=classic;html=1;rounded=0;strokeColor=#1d722e;" edge="1" parent="1">
          <mxGeometry width="50" height="50" relative="1" as="geometry">
            <mxPoint x="390" y="568" as="sourcePoint" />
            <mxPoint x="440" y="568" as="targetPoint" />
          </mxGeometry>
        </mxCell>
        <mxCell id="uETTeMXWZc_A1X-onE9V-5" value="" style="endArrow=classic;html=1;rounded=0;strokeColor=#1d722e;" edge="1" parent="1">
          <mxGeometry width="50" height="50" relative="1" as="geometry">
            <mxPoint x="160" y="586" as="sourcePoint" />
            <mxPoint x="440" y="586" as="targetPoint" />
          </mxGeometry>
        </mxCell>
        <mxCell id="uETTeMXWZc_A1X-onE9V-6" value="" style="endArrow=classic;html=1;rounded=0;strokeColor=#1d722e;" edge="1" parent="1">
          <mxGeometry width="50" height="50" relative="1" as="geometry">
            <mxPoint x="237" y="640" as="sourcePoint" />
            <mxPoint x="440" y="640" as="targetPoint" />
          </mxGeometry>
        </mxCell>
        <mxCell id="uETTeMXWZc_A1X-onE9V-7" value="&lt;font color=&quot;#1d722e&quot;&gt;&lt;b&gt;n&lt;/b&gt;&lt;/font&gt;" style="text;html=1;align=center;verticalAlign=middle;resizable=0;points=[];autosize=1;strokeColor=none;fillColor=none;" vertex="1" parent="1">
          <mxGeometry x="440" y="535" width="30" height="30" as="geometry" />
        </mxCell>
        <mxCell id="uETTeMXWZc_A1X-onE9V-8" value="&lt;font color=&quot;#1d722e&quot;&gt;&lt;b&gt;1&lt;/b&gt;&lt;/font&gt;" style="text;html=1;align=center;verticalAlign=middle;resizable=0;points=[];autosize=1;strokeColor=none;fillColor=none;" vertex="1" parent="1">
          <mxGeometry x="440" y="502" width="30" height="30" as="geometry" />
        </mxCell>
        <mxCell id="uETTeMXWZc_A1X-onE9V-9" value="&lt;font color=&quot;#1d722e&quot;&gt;&lt;b&gt;n&lt;/b&gt;&lt;/font&gt;" style="text;html=1;align=center;verticalAlign=middle;resizable=0;points=[];autosize=1;strokeColor=none;fillColor=none;" vertex="1" parent="1">
          <mxGeometry x="440" y="553" width="30" height="30" as="geometry" />
        </mxCell>
        <mxCell id="uETTeMXWZc_A1X-onE9V-10" value="&lt;font color=&quot;#1d722e&quot;&gt;&lt;b&gt;n&lt;/b&gt;&lt;/font&gt;" style="text;html=1;align=center;verticalAlign=middle;resizable=0;points=[];autosize=1;strokeColor=none;fillColor=none;" vertex="1" parent="1">
          <mxGeometry x="440" y="570" width="30" height="30" as="geometry" />
        </mxCell>
        <mxCell id="uETTeMXWZc_A1X-onE9V-11" value="&lt;font color=&quot;#1d722e&quot;&gt;&lt;b&gt;1&lt;/b&gt;&lt;/font&gt;" style="text;html=1;align=center;verticalAlign=middle;resizable=0;points=[];autosize=1;strokeColor=none;fillColor=none;" vertex="1" parent="1">
          <mxGeometry x="440" y="625" width="30" height="30" as="geometry" />
        </mxCell>
        <mxCell id="uETTeMXWZc_A1X-onE9V-12" value="" style="endArrow=none;html=1;rounded=0;strokeColor=#26599c;" edge="1" parent="1">
          <mxGeometry width="50" height="50" relative="1" as="geometry">
            <mxPoint x="440" y="655" as="sourcePoint" />
            <mxPoint x="500" y="655" as="targetPoint" />
          </mxGeometry>
        </mxCell>
        <mxCell id="uETTeMXWZc_A1X-onE9V-13" value="&lt;font color=&quot;#26599c&quot;&gt;&lt;b&gt;3n + 2&lt;/b&gt;&lt;/font&gt;" style="text;html=1;align=center;verticalAlign=middle;resizable=0;points=[];autosize=1;strokeColor=none;fillColor=none;" vertex="1" parent="1">
          <mxGeometry x="440" y="655" width="60" height="30" as="geometry" />
        </mxCell>
        <mxCell id="uETTeMXWZc_A1X-onE9V-14" value="&lt;font color=&quot;#a11b1b&quot;&gt;&lt;b&gt;=&amp;nbsp;&lt;/b&gt;&lt;span style=&quot;font-size: 12px;&quot;&gt;&lt;b&gt;3n + 2&lt;/b&gt;&lt;/span&gt;&lt;/font&gt;&lt;div&gt;&lt;font color=&quot;#a11b1b&quot;&gt;&lt;b&gt;Eliminating the constants:&lt;/b&gt;&lt;/font&gt;&lt;/div&gt;&lt;div&gt;&lt;font color=&quot;#a11b1b&quot;&gt;&lt;b&gt;=&amp;nbsp;&lt;/b&gt;&lt;/font&gt;&lt;b style=&quot;background-color: initial; color: rgb(161, 27, 27);&quot;&gt;n&lt;/b&gt;&lt;/div&gt;&lt;div&gt;&lt;font color=&quot;#a11b1b&quot;&gt;&lt;b&gt;Getting the highest degree:&lt;/b&gt;&lt;/font&gt;&lt;/div&gt;&lt;div&gt;&lt;font color=&quot;#a11b1b&quot;&gt;&lt;b&gt;=&amp;nbsp;&lt;/b&gt;&lt;/font&gt;&lt;b style=&quot;background-color: initial; color: rgb(161, 27, 27);&quot;&gt;n&lt;/b&gt;&lt;/div&gt;&lt;div&gt;&lt;font color=&quot;#a11b1b&quot;&gt;&lt;b&gt;Time Complexity:&lt;/b&gt;&lt;/font&gt;&lt;/div&gt;&lt;div&gt;&lt;font color=&quot;#a11b1b&quot;&gt;&lt;b&gt;= O(n)&lt;/b&gt;&lt;/font&gt;&lt;/div&gt;" style="text;html=1;align=center;verticalAlign=middle;resizable=0;points=[];autosize=1;strokeColor=none;fillColor=none;" vertex="1" parent="1">
          <mxGeometry x="380" y="710" width="180" height="110" as="geometry" />
        </mxCell>
        <mxCell id="uETTeMXWZc_A1X-onE9V-15" value="" style="endArrow=classic;startArrow=none;html=1;rounded=0;entryX=0.498;entryY=1.054;entryDx=0;entryDy=0;entryPerimeter=0;strokeColor=#a11b1b;startFill=0;" edge="1" parent="1">
          <mxGeometry width="50" height="50" relative="1" as="geometry">
            <mxPoint x="469.9999999999999" y="703" as="sourcePoint" />
            <mxPoint x="469.9999999999999" y="685" as="targetPoint" />
            <Array as="points" />
          </mxGeometry>
        </mxCell>
      </root>
    </mxGraphModel>
  </diagram>
</mxfile>
